<?xml version="1.0" encoding="UTF-8" standalone="no"?>
<svg
   xmlns:dc="http://purl.org/dc/elements/1.1/"
   xmlns:cc="http://creativecommons.org/ns#"
   xmlns:rdf="http://www.w3.org/1999/02/22-rdf-syntax-ns#"
   xmlns:svg="http://www.w3.org/2000/svg"
   xmlns="http://www.w3.org/2000/svg"
   xmlns:xlink="http://www.w3.org/1999/xlink"
   xmlns:sodipodi="http://sodipodi.sourceforge.net/DTD/sodipodi-0.dtd"
   xmlns:inkscape="http://www.inkscape.org/namespaces/inkscape"
   sodipodi:docname="RFII.svg"
   inkscape:version="1.0 (4035a4fb49, 2020-05-01)"
   id="svg8"
   version="1.1"
   viewBox="0 0 67.733333 67.733333"
   height="256"
   width="256">
  <defs
     id="defs2">
    <linearGradient
       id="linearGradient903"
       inkscape:collect="always">
      <stop
         id="stop899"
         offset="0"
         style="stop-color:#3800e7;stop-opacity:1" />
      <stop
         id="stop901"
         offset="1"
         style="stop-color:#8a14ff;stop-opacity:1" />
    </linearGradient>
    <linearGradient
       inkscape:collect="always"
       id="linearGradient875">
      <stop
         style="stop-color:#8a14ff;stop-opacity:1"
         offset="0"
         id="stop871" />
      <stop
         style="stop-color:#3800e7;stop-opacity:1"
         offset="1"
         id="stop873" />
    </linearGradient>
    <linearGradient
       gradientTransform="matrix(0.85755868,0,0,0.85755868,-6.6479168,-6.6479168)"
       inkscape:collect="always"
       xlink:href="#linearGradient875"
       id="linearGradient877"
       x1="24.126953"
       y1="47.244141"
       x2="70.361328"
       y2="47.244141"
       gradientUnits="userSpaceOnUse" />
    <linearGradient
       gradientTransform="matrix(3.2411667,0,0,3.2411667,-6.6479168,-6.6479168)"
       inkscape:collect="always"
       xlink:href="#linearGradient903"
       id="linearGradient885"
       x1="3.0555143"
       y1="12.5"
       x2="21.944487"
       y2="12.5"
       gradientUnits="userSpaceOnUse" />
  </defs>
  <sodipodi:namedview
     units="px"
     inkscape:window-maximized="1"
     inkscape:window-y="32"
     inkscape:window-x="-8"
     inkscape:window-height="1017"
     inkscape:window-width="1920"
     showgrid="false"
     inkscape:document-rotation="0"
     inkscape:current-layer="layer1"
     inkscape:document-units="mm"
     inkscape:cy="591.96079"
     inkscape:cx="-428.13106"
     inkscape:zoom="0.35"
     inkscape:pageshadow="2"
     inkscape:pageopacity="0.0"
     borderopacity="1.0"
     bordercolor="#666666"
     pagecolor="#ffffff"
     id="base" />
  <metadata
     id="metadata5">
    <rdf:RDF>
      <cc:Work
         rdf:about="">
        <dc:format>image/svg+xml</dc:format>
        <dc:type
           rdf:resource="http://purl.org/dc/dcmitype/StillImage" />
        <dc:title></dc:title>
      </cc:Work>
    </rdf:RDF>
  </metadata>
  <g
     id="layer1"
     inkscape:groupmode="layer"
     inkscape:label="Layer 1">
    <path
       id="path865"
       style="font-style:normal;font-variant:normal;font-weight:500;font-stretch:normal;font-size:17.6389px;line-height:1.25;font-family:'Glass TTY VT220';-inkscape-font-specification:'Glass TTY VT220 Medium';letter-spacing:0px;word-spacing:0px;fill:url(#linearGradient877);fill-opacity:1;stroke-width:0.857559"
       d="m 26.90574,15.286826 c -5.755175,0 -8.937219,0.171176 -9.547039,0.5142 -0.30491,0.152456 -0.458929,0.457142 -0.458929,0.914506 0,0.571706 0.285853,0.932893 0.857559,1.085348 0.838503,0.228682 3.888712,0.343358 9.148409,0.343358 3.072464,0 5.354967,-0.05298 6.960966,-0.150743 1.605998,0.09776 3.8885,0.150743 6.960964,0.150743 5.259696,0 8.308232,-0.114676 9.146735,-0.343358 0.571706,-0.152455 0.857558,-0.513642 0.857558,-1.085348 0,-0.457364 -0.152344,-0.76205 -0.457253,-0.914506 -0.609821,-0.343024 -3.791865,-0.5142 -9.54704,-0.5142 -3.142647,0 -5.39669,0.04565 -6.960964,0.127293 -1.564276,-0.08164 -3.818318,-0.127293 -6.960966,-0.127293 z m -10.005968,5.7165 c -1.181526,0 -1.94324,0.09584 -2.286264,0.28641 -0.381137,0.152456 -0.571148,0.532476 -0.571148,1.142295 0,0.60982 0.190011,1.010349 0.571148,1.200917 0.343024,0.152456 1.104738,0.229464 2.286264,0.229464 1.181527,0 1.963751,-0.07701 2.344888,-0.229464 0.343024,-0.19057 0.5142,-0.591097 0.5142,-1.200917 0,-0.609819 -0.171176,-0.98984 -0.5142,-1.142295 -0.381137,-0.19057 -1.163361,-0.28641 -2.344888,-0.28641 z m 16.781017,0 c -1.181526,0 -1.962074,0.09584 -2.343212,0.28641 -0.343026,0.152455 -0.5142,0.532476 -0.514201,1.142295 1e-6,0.60982 0.171175,1.010347 0.514201,1.200917 0.381138,0.152456 1.161686,0.229464 2.343212,0.229464 0.07528,0 0.114045,-0.0061 0.185917,-0.0067 0.07133,6.09e-4 0.109558,0.0067 0.18424,0.0067 1.181527,0 1.96375,-0.07701 2.344887,-0.229464 0.343026,-0.19057 0.514201,-0.591097 0.514201,-1.200917 0,-0.609819 -0.171175,-0.98984 -0.514201,-1.142295 -0.381137,-0.19057 -1.16336,-0.28641 -2.344887,-0.28641 -0.06741,0 -0.119553,0.0043 -0.18424,0.0051 -0.06513,-6.3e-4 -0.118028,-0.0051 -0.185917,-0.0051 z m 17.151174,0 c -1.181526,0 -1.962074,0.09584 -2.343213,0.28641 -0.343023,0.152455 -0.5142,0.532476 -0.5142,1.142295 0,0.60982 0.171177,1.010347 0.5142,1.200917 0.381139,0.152456 1.161687,0.229464 2.343213,0.229464 1.181526,0 1.944915,-0.07701 2.287939,-0.229464 0.381138,-0.190568 0.571148,-0.591097 0.571148,-1.200917 0,-0.609819 -0.19001,-0.989839 -0.571148,-1.142295 -0.343024,-0.19057 -1.106413,-0.28641 -2.287939,-0.28641 z m -33.932191,5.716499 c -1.181526,0 -1.94324,0.09585 -2.286264,0.286411 -0.381137,0.152465 -0.571148,0.53416 -0.571148,1.143969 0,0.609822 0.190011,1.008675 0.571148,1.199242 0.343024,0.152465 1.104738,0.229465 2.286264,0.229465 1.181527,0 1.963751,-0.077 2.344888,-0.229465 0.343024,-0.190558 0.5142,-0.589412 0.5142,-1.199242 0,-0.609819 -0.171176,-0.991513 -0.5142,-1.143969 -0.381137,-0.190559 -1.163361,-0.286411 -2.344888,-0.286411 z m 16.781017,0 c -1.181526,0 -1.962074,0.09585 -2.343212,0.286411 -0.343026,0.152456 -0.5142,0.53415 -0.514201,1.143969 1e-6,0.60983 0.171175,1.008684 0.514201,1.199242 0.381138,0.152465 1.161686,0.229465 2.343212,0.229465 0.07528,0 0.114042,-0.0061 0.185917,-0.0067 0.07133,6.09e-4 0.109555,0.0067 0.18424,0.0067 1.181527,0 1.96375,-0.077 2.344887,-0.229465 0.343026,-0.190558 0.514201,-0.589412 0.514201,-1.199242 0,-0.609819 -0.171175,-0.991513 -0.514201,-1.143969 -0.381137,-0.190559 -1.16336,-0.286411 -2.344887,-0.286411 -0.06741,0 -0.119553,0.0043 -0.18424,0.0051 -0.06513,-6.3e-4 -0.118028,-0.0051 -0.185917,-0.0051 z m 17.151174,0 c -1.181526,0 -1.962074,0.09585 -2.343213,0.286411 -0.343023,0.152456 -0.5142,0.53415 -0.5142,1.143969 0,0.60983 0.171177,1.008684 0.5142,1.199242 0.381139,0.152465 1.161687,0.229465 2.343213,0.229465 1.181526,0 1.944915,-0.077 2.287939,-0.229465 0.381138,-0.190567 0.571148,-0.58942 0.571148,-1.199242 0,-0.609809 -0.19001,-0.991504 -0.571148,-1.143969 -0.343024,-0.190559 -1.106413,-0.286411 -2.287939,-0.286411 z M 26.90574,32.438 c -5.755175,0 -8.937219,0.171175 -9.547039,0.514199 -0.30491,0.152443 -0.458929,0.45713 -0.458929,0.914507 0,0.571707 0.285853,0.934568 0.857559,1.087022 0.838503,0.228683 3.888712,0.341683 9.148409,0.341683 3.072464,0 5.354967,-0.05131 6.960966,-0.149068 1.605998,0.09776 3.8885,0.149068 6.960964,0.149068 5.259696,0 8.308232,-0.113 9.146735,-0.341683 0.571706,-0.152454 0.857558,-0.515315 0.857558,-1.087022 0,-0.457377 -0.152344,-0.762064 -0.457253,-0.914507 C 49.764889,32.609175 46.582845,32.438 40.82767,32.438 c -3.142647,0 -5.39669,0.04565 -6.960964,0.127293 C 32.30243,32.483653 30.048388,32.438 26.90574,32.438 Z m -4.287793,5.716499 c -1.181526,0 -1.944915,0.09585 -2.28794,0.286411 -0.381137,0.152465 -0.571147,0.532485 -0.571147,1.142295 0,0.609821 0.19001,1.01035 0.571147,1.200917 0.343025,0.152465 1.106414,0.229464 2.28794,0.229464 1.181526,0 1.962074,-0.077 2.343213,-0.229464 0.343023,-0.190559 0.514199,-0.591088 0.514199,-1.200917 0,-0.609819 -0.171176,-0.989839 -0.514199,-1.142295 -0.381139,-0.190559 -1.161687,-0.286411 -2.343213,-0.286411 z m 11.062842,0 c -1.181526,0 -1.962074,0.09585 -2.343212,0.286411 -0.343026,0.152456 -0.514201,0.532476 -0.514201,1.142295 0,0.609829 0.171175,1.010358 0.514201,1.200917 0.381138,0.152465 1.161686,0.229464 2.343212,0.229464 0.07528,0 0.114042,-0.0061 0.185917,-0.0067 0.07133,6.1e-4 0.109555,0.0067 0.18424,0.0067 1.181527,0 1.96375,-0.077 2.344887,-0.229464 0.343026,-0.190559 0.514201,-0.591088 0.514201,-1.200917 0,-0.609819 -0.171175,-0.989839 -0.514201,-1.142295 -0.381137,-0.190559 -1.16336,-0.286411 -2.344887,-0.286411 -0.06741,0 -0.119553,0.0043 -0.18424,0.0051 -0.06513,-6.3e-4 -0.118028,-0.0051 -0.185917,-0.0051 z m 11.434674,0 c -1.181526,0 -1.962074,0.09585 -2.343212,0.286411 -0.343024,0.152456 -0.515875,0.532476 -0.515875,1.142295 0,0.609829 0.172851,1.010358 0.515875,1.200917 0.381138,0.152465 1.161686,0.229464 2.343212,0.229464 1.181527,0 1.943242,-0.077 2.286265,-0.229464 0.381137,-0.190567 0.572822,-0.591096 0.572822,-1.200917 10e-7,-0.60981 -0.191685,-0.98983 -0.572822,-1.142295 -0.343023,-0.190559 -1.104738,-0.286411 -2.286265,-0.286411 z M 19.75886,43.870998 c -1.181526,0 -1.943241,0.09585 -2.286265,0.286412 -0.381138,0.152464 -0.572823,0.53416 -0.572823,1.143969 0,0.609822 0.191685,1.008675 0.572823,1.199242 0.343024,0.152465 1.104739,0.229464 2.286265,0.229464 1.181526,0 1.96375,-0.077 2.344887,-0.229464 0.343024,-0.190559 0.5142,-0.589412 0.5142,-1.199242 0,-0.609819 -0.171176,-0.991513 -0.5142,-1.143969 -0.381137,-0.190559 -1.163361,-0.286412 -2.344887,-0.286412 z m 13.921929,0 c -1.181526,0 -1.962074,0.09585 -2.343212,0.286412 -0.343026,0.152456 -0.514201,0.53415 -0.514201,1.143969 0,0.60983 0.171175,1.008683 0.514201,1.199242 0.381138,0.152465 1.161686,0.229464 2.343212,0.229464 0.07528,0 0.114042,-0.0061 0.185917,-0.0067 0.07133,6.1e-4 0.109555,0.0067 0.18424,0.0067 1.181527,0 1.96375,-0.077 2.344887,-0.229464 0.343026,-0.190559 0.514201,-0.589412 0.514201,-1.199242 0,-0.609819 -0.171175,-0.991513 -0.514201,-1.143969 -0.381137,-0.190559 -1.16336,-0.286412 -2.344887,-0.286412 -0.06741,0 -0.119553,0.0043 -0.18424,0.0051 -0.06513,-6.3e-4 -0.118028,-0.0051 -0.185917,-0.0051 z m 14.293761,0 c -1.181526,0 -1.963749,0.09585 -2.344886,0.286412 -0.343025,0.152456 -0.514201,0.53415 -0.514201,1.143969 0,0.60983 0.171176,1.008683 0.514201,1.199242 0.381137,0.152465 1.16336,0.229464 2.344886,0.229464 1.181526,0 1.943242,-0.077 2.286265,-0.229464 0.381138,-0.190567 0.571148,-0.58942 0.571148,-1.199242 0,-0.609809 -0.19001,-0.991505 -0.571148,-1.143969 -0.343023,-0.190559 -1.104739,-0.286412 -2.286265,-0.286412 z m -31.074778,5.718175 c -1.181526,0 -1.94324,0.09418 -2.286264,0.284736 -0.381137,0.152464 -0.571148,0.534159 -0.571148,1.14397 0,0.609821 0.190011,1.010349 0.571148,1.200916 0.343024,0.152465 1.104738,0.227789 2.286264,0.227789 1.181527,0 1.963751,-0.07533 2.344888,-0.227789 0.343024,-0.190559 0.5142,-0.591086 0.5142,-1.200916 0,-0.60982 -0.171176,-0.991514 -0.5142,-1.14397 -0.381137,-0.190559 -1.163361,-0.284736 -2.344888,-0.284736 z m 16.781017,0 c -1.181526,0 -1.962074,0.09418 -2.343212,0.284736 -0.343026,0.152456 -0.5142,0.53415 -0.514201,1.14397 1e-6,0.60983 0.171175,1.010357 0.514201,1.200916 0.381138,0.152465 1.161686,0.227789 2.343212,0.227789 0.07528,0 0.114042,-0.0061 0.185917,-0.0067 0.07133,6.09e-4 0.109555,0.0067 0.18424,0.0067 1.181527,0 1.96375,-0.07533 2.344887,-0.227789 0.343026,-0.190559 0.514201,-0.591086 0.514201,-1.200916 0,-0.60982 -0.171175,-0.991514 -0.514201,-1.14397 -0.381137,-0.190559 -1.16336,-0.284736 -2.344887,-0.284736 -0.0674,0 -0.119562,0.0028 -0.18424,0.0034 -0.06511,-6.29e-4 -0.118038,-0.0034 -0.185917,-0.0034 z m 17.151174,0 c -1.181526,0 -1.962074,0.09418 -2.343213,0.284736 -0.343023,0.152456 -0.5142,0.53415 -0.5142,1.14397 0,0.60983 0.171177,1.010357 0.5142,1.200916 0.381139,0.152465 1.161687,0.227789 2.343213,0.227789 1.181526,0 1.944915,-0.07533 2.287939,-0.227789 0.381138,-0.190567 0.571148,-0.591095 0.571148,-1.200916 0,-0.609811 -0.19001,-0.991506 -0.571148,-1.14397 -0.343024,-0.190559 -1.106413,-0.284736 -2.287939,-0.284736 z" />
    <circle
       r="29.800861"
       cy="33.866665"
       cx="33.866665"
       id="path849"
       style="fill:none;fill-opacity:1;fill-rule:evenodd;stroke:url(#linearGradient885);stroke-width:1.62058;stroke-linecap:round;stroke-linejoin:round;stroke-miterlimit:4;stroke-dasharray:none;stroke-opacity:1;paint-order:fill markers stroke" />
  </g>
</svg>
